# xmcd
#
# Track frame offsets:
#	150
#	9829
#	21922
#	32468
#	43975
#	55815
#	65155
#	76727
#	87849
#	97349
#	108114
#	117929
#	129103
#	141613
#	151408
#	164465
#	175618
#	187490
#	198372
#	209150
#	219061
#	230187
#	242364
#	254336
#	262526
#	273188
#	284459
#	295463
#	305866
#	318298
#
# Disc length: 4370 seconds
#
# Revision: 2
# Processed by: cddbd v1.5.2PL0 Copyright (c) Steve Scherf et al.
# Submitted via: EZCDAudioConverter 6.0.5.1
#
DISCID=b611101e
DTITLE=George Jones - When My Heart Hurts No More
DYEAR=2016
DGENRE=Country
TTITLE0=Into My Arms Again
TTITLE1=A Girl I Used to Know
TTITLE2=I Can't Help It
TTITLE3=Window Up Above
TTITLE4=We Must Have Been Out of Our Minds
TTITLE5=When My Heart Hurts No More
TTITLE6=She Thinks I Still Care
TTITLE7=Long Time to Forget
TTITLE8=Did I Ever Tell You
TTITLE9=Tender Years
TTITLE10=There's No Justice
TTITLE11=Everything Ain't Right
TTITLE12=Aching Breaking Heart
TTITLE13=Let's Invite Them Over
TTITLE14=Time Changes Everything
TTITLE15=Big Fool of the Year
TTITLE16=Lovin' Lies
TTITLE17=A House Without Love
TTITLE18=The Precious Jewel
TTITLE19=It's a Sin
TTITLE20=Imitation of Love
TTITLE21=Sometimes You Just Can't Win
TTITLE22=The Same Sweet Girl
TTITLE23=Yes I Know Why
TTITLE24=Silver Dew on the Bluegrass Tonight
TTITLE25=They'll Never Take Her Love From Me
TTITLE26=I Get Lonely in a Hurry
TTITLE27=Worried Mind
TTITLE28=I Saw Me
TTITLE29=The Race Is On
EXTD=
EXTT0=
EXTT1=
EXTT2=
EXTT3=
EXTT4=
EXTT5=
EXTT6=
EXTT7=
EXTT8=
EXTT9=
EXTT10=
EXTT11=
EXTT12=
EXTT13=
EXTT14=
EXTT15=
EXTT16=
EXTT17=
EXTT18=
EXTT19=
EXTT20=
EXTT21=
EXTT22=
EXTT23=
EXTT24=
EXTT25=
EXTT26=
EXTT27=
EXTT28=
EXTT29=
PLAYORDER=
